<?xml version="1.0" encoding="utf-8"?>
<!-- Generator: Adobe Illustrator 16.0.4, SVG Export Plug-In . SVG Version: 6.00 Build 0)  -->
<!DOCTYPE svg PUBLIC "-//W3C//DTD SVG 1.1//EN" "http://www.w3.org/Graphics/SVG/1.1/DTD/svg11.dtd">
<svg version="1.1" id="Layer_1" xmlns="http://www.w3.org/2000/svg" xmlns:xlink="http://www.w3.org/1999/xlink" x="0px" y="0px"
	 width="1957px" height="2500px" viewBox="0 0 1957 2500" enable-background="new 0 0 1957 2500" xml:space="preserve">
<g>
	<path d="M529.751,0.038c-12.637,0.39-26.244,5.061-41.686,17.238C450.263,2.699,413.584-2.37,380.797,27.314
		c-50.63-6.567-67.081,6.987-79.549,22.811c-11.115-0.229-83.165-11.428-116.212,37.863
		c-83.035-9.823-109.278,48.841-79.541,103.553c-16.963,26.251-34.538,52.189,5.122,102.246
		c-14.027,27.872-5.328,58.114,27.719,94.708c-8.715,39.192,8.424,66.836,39.178,88.386c-5.756,53.627,49.177,84.81,65.575,95.916
		c6.299,31.243,19.425,60.736,82.164,77.034c10.351,46.57,48.054,54.612,84.571,64.382
		c-120.684,70.154-224.176,162.446-223.473,388.916l-17.682,31.533c-138.381,84.15-262.88,354.63-68.189,574.472
		c12.713,68.815,34.042,118.245,53.03,172.95c28.399,220.438,213.757,323.661,262.65,335.869
		c71.638,54.566,147.938,106.344,251.2,142.617c97.321,100.379,202.771,138.641,308.793,138.58
		c1.56,0,216.163-38.192,313.502-138.58c103.247-36.273,179.547-88.051,251.198-142.617
		c48.88-12.208,234.236-115.432,262.637-335.869c18.988-54.705,40.316-104.135,53.038-172.95
		c194.675-219.864,70.185-490.351-68.189-574.502l-17.712-31.534c0.703-226.446-102.789-318.746-223.473-388.915
		c36.51-9.77,74.228-17.812,84.562-64.382c62.738-16.307,75.872-45.791,82.163-77.034c16.405-11.106,71.331-42.29,65.59-95.916
		c30.739-21.55,47.886-49.2,39.163-88.386c33.056-36.594,41.747-66.836,27.72-94.716c39.675-50.026,22.069-75.963,5.129-102.215
		c29.724-54.712,3.494-113.384-79.57-103.553c-33.024-49.292-105.066-38.101-116.214-37.871
		c-12.459-15.816-28.91-29.371-79.541-22.804c-32.786-29.684-69.449-24.623-107.268-10.037
		c-44.904-35.433-74.611-7.033-108.553,3.708c-54.368-17.766-66.807,6.566-93.516,16.481
		c-59.291-12.529-77.311,14.747-105.725,43.536l-33.07-0.657c-89.426,52.701-133.854,160.015-149.604,215.186
		c-15.748-55.179-60.078-162.492-149.489-215.186l-33.062,0.657c-28.46-28.789-46.472-56.065-105.763-43.536
		c-26.718-9.915-39.103-34.247-93.516-16.481c-22.276-7.048-42.764-21.695-66.882-20.946"/>
	<path fill="#6CC04A" d="M351.71,231.889c237.255,122.32,375.187,221.271,450.752,305.543
		c-38.696,155.101-240.573,162.18-314.39,157.829c15.112-7.033,27.728-15.465,32.199-28.406
		c-18.522-13.164-84.197-1.393-130.049-27.146c17.613-3.654,25.854-7.209,34.086-20.205
		c-43.312-13.812-89.976-25.724-117.419-48.611c14.808,0.185,28.637,3.317,47.978-10.099
		c-38.797-20.907-80.199-37.479-112.367-69.442c20.059-0.488,41.686-0.198,47.977-7.575c-35.509-22.001-65.476-46.464-90.274-73.228
		c28.071,3.387,39.927,0.475,46.716-4.419c-26.848-27.497-60.82-50.714-77.019-84.594c20.839,7.186,39.912,9.938,53.657-0.627
		c-9.12-20.579-48.199-32.718-70.704-80.81c21.947,2.133,45.217,4.785,49.873,0c-10.182-41.495-27.658-64.826-44.797-88.998
		c46.96-0.695,118.116,0.184,114.897-3.784l-29.042-29.668c45.875-12.354,92.812,1.98,126.892,12.621
		c15.297-12.071-0.275-27.337-18.943-42.924c38.987,5.206,74.213,14.165,106.061,26.511c17.009-15.357-11.047-30.723-24.623-46.081
		c60.231,11.421,85.748,27.482,111.105,43.559c18.399-17.636,1.055-32.627-11.359-47.977c45.416,16.818,68.808,38.536,93.431,59.971
		c8.35-11.268,21.215-19.532,5.682-46.716c32.244,18.584,56.531,40.486,74.495,65.024c19.952-12.705,11.888-30.073,11.995-46.089
		c33.514,27.261,54.779,56.271,80.81,84.595c5.244-3.822,9.831-16.765,13.891-37.244c79.938,77.554,192.901,272.909,29.034,350.364
		c-139.46-115.02-306.019-198.628-490.596-261.344L351.71,231.889 M1610.596,231.889
		c-237.225,122.334-375.154,221.254-450.714,305.543c38.696,155.101,240.565,162.18,314.382,157.829
		c-15.113-7.033-27.728-15.465-32.19-28.406c18.521-13.164,84.195-1.393,130.041-27.146c-17.613-3.654-25.847-7.209-34.087-20.205
		c43.32-13.812,89.982-25.724,117.42-48.611c-14.809,0.185-28.638,3.317-47.979-10.099c38.804-20.907,80.207-37.479,112.375-69.442
		c-20.066-0.488-41.693-0.198-47.977-7.575c35.508-22.001,65.475-46.464,90.272-73.228c-28.078,3.387-39.927,0.475-46.715-4.419
		c26.84-27.497,60.819-50.714,77.019-84.594c-20.847,7.186-39.92,9.938-53.664-0.627c9.119-20.579,48.205-32.718,70.703-80.81
		c-21.938,2.133-45.218,4.785-49.873,0c10.206-41.51,27.682-64.841,44.82-89.013c-46.961-0.696-118.116,0.184-114.896-3.784
		l29.041-29.676c-45.875-12.346-92.812,1.988-126.892,12.629c-15.297-12.071,0.269-27.337,18.937-42.924
		c-38.979,5.198-74.215,14.166-106.054,26.511c-17.017-15.358,11.046-30.723,24.623-46.081
		c-60.23,11.421-85.749,27.482-111.112,43.559c-18.4-17.636-1.049-32.627,11.366-47.977c-45.416,16.818-68.809,38.536-93.432,59.971
		c-8.354-11.268-21.214-19.532-5.688-46.716c-32.236,18.584-56.522,40.485-74.487,65.024
		c-19.952-12.705-11.888-30.081-11.994-46.089c-33.515,27.26-54.781,56.264-80.812,84.594c-5.244-3.822-9.831-16.764-13.891-37.251
		c-79.938,77.561-192.901,272.917-29.033,350.372c139.383-115.05,305.935-198.643,490.52-261.359H1610.596"/>
	<path fill="#C51A4A" d="M1268.48,1811.242c0.824,144.732-125.745,262.681-282.695,263.438
		c-156.957,0.766-284.865-115.943-285.691-260.679c-0.008-0.92-0.008-1.84,0-2.76c-0.825-144.727,125.737-262.673,282.695-263.438
		c156.957-0.765,284.857,115.944,285.691,260.68V1811.242 M819.846,1062.62c117.756,77.156,138.985,252.033,47.411,390.598
		c-91.574,138.572-261.267,188.369-379.022,111.22c-117.757-77.155-138.979-252.031-47.411-390.597
		C532.396,1035.27,702.089,985.472,819.846,1062.62 M1137.675,1048.654c-117.749,77.147-138.978,252.031-47.411,390.597
		c91.573,138.572,261.268,188.369,379.023,111.213c117.756-77.147,138.984-252.024,47.411-390.598
		C1425.132,1021.302,1255.438,971.505,1137.675,1048.654 M231.308,1188.755c127.136-34.079,42.924,525.967-60.521,480.017
		C56.998,1577.25,20.35,1309.226,231.308,1188.755 M1700.549,1181.775c-127.15-34.071-42.924,525.998,60.521,480.047
		C1874.859,1570.294,1911.508,1302.238,1700.549,1181.775 M1268.579,764.713c219.406-37.045,401.973,93.311,394.604,331.223
		C1655.966,1187.15,1187.746,778.298,1268.579,764.713 M662.368,757.733c-219.421-37.054-401.973,93.331-394.603,331.229
		C274.981,1180.17,743.209,771.318,662.368,757.733 M977.537,702.25c-130.951-3.41-256.627,97.185-256.934,155.535
		c-0.358,70.896,103.537,143.488,257.827,145.33c157.555,1.124,258.095-58.105,258.6-131.271
		c0.581-82.896-143.297-170.879-259.493-169.602V702.25 M985.533,2156.086c114.171-4.982,267.367,36.771,267.673,92.171
		c1.896,53.787-138.938,175.319-275.241,172.973c-141.164,6.093-279.583-115.631-277.771-157.821
		C698.075,2201.549,872.073,2153.251,985.533,2156.086 M563.83,1827.792c81.284,97.927,118.345,269.976,50.508,320.696
		c-64.176,38.719-220.025,22.771-330.794-136.363c-74.71-133.535-65.085-269.416-12.629-309.336
		c78.441-47.778,199.637,16.764,292.923,125.003H563.83 M1390.969,1796.748c-87.951,103.01-136.922,290.896-72.769,351.411
		c61.347,47.014,226.024,40.438,347.665-128.344c88.324-113.361,58.732-302.679,8.279-352.948
		c-74.947-57.969-182.545,16.222-283.177,129.85L1390.969,1796.748"/>
</g>
</svg>
