<?xml version="1.0" encoding="utf-8"?>
<!-- Generator: Adobe Illustrator 16.0.4, SVG Export Plug-In . SVG Version: 6.00 Build 0)  -->
<!DOCTYPE svg PUBLIC "-//W3C//DTD SVG 1.1//EN" "http://www.w3.org/Graphics/SVG/1.1/DTD/svg11.dtd">
<svg version="1.1" id="Layer_1" xmlns="http://www.w3.org/2000/svg" xmlns:xlink="http://www.w3.org/1999/xlink" x="0px" y="0px"
	 width="50px" height="50px" viewBox="0 0 50 50" enable-background="new 0 0 50 50" xml:space="preserve">
<rect x="-0.001" y="-0.001" fill="none" width="50" height="50"/>
<path fill="#AAAAAA" d="M48.719,7.391c0,2.326-1.054,4.592-3.16,6.798l-0.328,0.328L26.802,33.93
	c-3.916,4.114-7.25,7.295-10.003,9.54c-2.753,2.246-4.696,3.371-5.829,3.371c-1.193,0-2.674-0.562-4.443-1.686
	c-1.769-1.123-2.912-2.281-3.429-3.476c-0.438-0.994-0.85-3.102-1.237-6.32c-0.388-3.221-0.582-6.709-0.582-10.466
	c0-2.047,0.855-3.941,2.564-5.68c1.71-1.739,3.599-2.609,5.666-2.609c1.968,0,3.141,1.799,3.519,5.397
	c0.039,0.418,0.069,0.727,0.089,0.925c0.318,2.764,0.687,4.691,1.104,5.784c0.418,1.095,0.984,1.642,1.699,1.642
	c0.299,0,0.855-0.324,1.67-0.97s1.789-1.526,2.923-2.64L39.445,7.987c1.59-1.59,3.012-2.793,4.264-3.608s2.314-1.223,3.189-1.223
	c0.656,0,1.123,0.249,1.401,0.746c0.278,0.497,0.418,1.332,0.418,2.504L48.719,7.391L48.719,7.391z"/>
</svg>
