<?xml version="1.0" encoding="utf-8"?>
<!-- Generator: Adobe Illustrator 16.0.4, SVG Export Plug-In . SVG Version: 6.00 Build 0)  -->
<!DOCTYPE svg PUBLIC "-//W3C//DTD SVG 1.1//EN" "http://www.w3.org/Graphics/SVG/1.1/DTD/svg11.dtd">
<svg version="1.1" id="Layer_1" xmlns="http://www.w3.org/2000/svg" xmlns:xlink="http://www.w3.org/1999/xlink" x="0px" y="0px"
	 width="50px" height="50px" viewBox="0 0 50 50" enable-background="new 0 0 50 50" xml:space="preserve">
<rect fill="none" width="50" height="50"/>
<path fill="#AAAAAA" d="M47.604,42.225L32.059,26.678c1.582-2.546,2.512-5.539,2.512-8.752c0-9.178-7.465-16.645-16.645-16.645
	c-9.179,0-16.645,7.467-16.645,16.645S8.747,34.57,17.926,34.57c3.214,0,6.205-0.93,8.752-2.512l15.547,15.547
	c0.743,0.742,1.717,1.112,2.689,1.112s1.947-0.37,2.689-1.112C49.09,46.118,49.09,43.711,47.604,42.225z M8.89,17.926
	c0-4.982,4.054-9.036,9.036-9.036c4.982,0,9.036,4.054,9.036,9.036c0,4.982-4.054,9.036-9.036,9.036
	C12.944,26.962,8.89,22.908,8.89,17.926z"/>
</svg>
