<?xml version="1.0" encoding="utf-8"?>
<!-- Generator: Adobe Illustrator 16.0.4, SVG Export Plug-In . SVG Version: 6.00 Build 0)  -->
<!DOCTYPE svg PUBLIC "-//W3C//DTD SVG 1.1//EN" "http://www.w3.org/Graphics/SVG/1.1/DTD/svg11.dtd">
<svg version="1.1" id="Layer_1" xmlns="http://www.w3.org/2000/svg" xmlns:xlink="http://www.w3.org/1999/xlink" x="0px" y="0px"
	 width="50px" height="50px" viewBox="0 0 50 50" enable-background="new 0 0 50 50" xml:space="preserve">
<rect fill="none" width="50" height="50"/>
<path fill="#FFFFFF" d="M38.118,3.22c-3.531-1.351-8.19-2.095-13.12-2.095c-4.928,0-9.588,0.744-13.12,2.095
	C7.831,4.768,5.601,7.033,5.601,9.596v30.806c0,2.563,2.23,4.827,6.277,6.377c3.532,1.35,8.192,2.095,13.12,2.095
	c4.93,0,9.589-0.745,13.12-2.095c4.048-1.55,6.277-3.813,6.277-6.377V9.596C44.396,7.033,42.166,4.768,38.118,3.22z M13.096,6.401
	c3.151-1.206,7.379-1.87,11.902-1.87c4.524,0,8.751,0.664,11.903,1.87c3.018,1.154,4.088,2.442,4.088,3.194s-1.07,2.041-4.088,3.195
	c-3.152,1.206-7.379,1.87-11.903,1.87c-4.523,0-8.751-0.664-11.902-1.87c-3.018-1.154-4.089-2.442-4.089-3.195
	S10.078,7.555,13.096,6.401z M36.901,43.597c-3.152,1.204-7.379,1.869-11.903,1.869c-4.523,0-8.751-0.665-11.902-1.869
	c-3.018-1.154-4.089-2.442-4.089-3.195v-4.728c0.82,0.515,1.779,0.984,2.871,1.402c3.532,1.353,8.192,2.094,13.12,2.094
	c4.93,0,9.589-0.741,13.12-2.094c1.093-0.418,2.052-0.888,2.871-1.402v4.728C40.989,41.154,39.919,42.442,36.901,43.597z
	 M36.901,33.895c-3.152,1.206-7.379,1.871-11.903,1.871c-4.523,0-8.751-0.665-11.902-1.871c-3.018-1.154-4.089-2.442-4.089-3.193
	v-5.355c0.82,0.515,1.779,0.984,2.871,1.403c3.532,1.35,8.192,2.094,13.12,2.094c4.93,0,9.589-0.744,13.12-2.094
	c1.093-0.419,2.052-0.889,2.871-1.403v5.355C40.989,31.452,39.919,32.74,36.901,33.895z M36.901,23.567
	c-3.152,1.206-7.379,1.869-11.903,1.869c-4.523,0-8.751-0.664-11.902-1.869c-3.018-1.155-4.089-2.443-4.089-3.195v-0.448V14.57
	c0.82,0.514,1.779,0.984,2.871,1.402c3.532,1.351,8.192,2.094,13.12,2.094c4.93,0,9.589-0.744,13.12-2.094
	c1.093-0.418,2.052-0.888,2.871-1.402v5.802C40.989,21.125,39.919,22.413,36.901,23.567z"/>
</svg>
